<?xml version="1.0" standalone="no"?>
<!DOCTYPE svg PUBLIC "-//W3C//DTD SVG 20010904//EN"
 "http://www.w3.org/TR/2001/REC-SVG-20010904/DTD/svg10.dtd">
<svg version="1.0" xmlns="http://www.w3.org/2000/svg"
 width="255.000000pt" height="255.000000pt" viewBox="0 0 255.000000 255.000000"
 preserveAspectRatio="xMidYMid meet">
<metadata>
Created by potrace 1.14, written by Peter Selinger 2001-2017
</metadata>
<g transform="translate(0.000000,255.000000) scale(0.100000,-0.100000)"
fill="#000000" stroke="none">
<path d="M1160 2434 c-202 -43 -376 -217 -413 -412 l-12 -62 -76 6 c-158 13
-308 -43 -424 -161 -172 -172 -207 -421 -92 -639 39 -73 135 -172 200 -206 32
-17 46 -30 43 -40 -2 -8 -14 -42 -27 -75 -31 -83 -38 -239 -14 -321 59 -203
222 -356 423 -395 112 -21 256 1 352 54 47 26 139 96 149 115 7 12 15 9 44
-21 165 -164 424 -203 631 -95 85 45 194 156 233 238 42 88 55 149 54 252 0
80 -17 154 -55 239 -5 12 6 24 43 48 153 99 251 276 251 456 0 149 -50 267
-159 376 -120 120 -228 163 -401 158 l-95 -3 -7 47 c-30 215 -204 396 -423
442 -85 18 -140 18 -225 -1z m668 -692 c13 -7 32 -28 42 -45 19 -30 20 -54 20
-452 0 -404 -1 -421 -20 -453 -34 -55 -65 -62 -281 -62 l-193 0 -348 -171
c-192 -95 -351 -169 -354 -166 -3 3 15 72 41 154 25 81 49 156 51 166 5 15 -2
17 -54 17 -70 0 -117 26 -144 80 -16 32 -18 74 -18 433 0 422 2 439 48 481 12
10 36 22 54 26 18 5 281 8 583 7 433 -2 555 -5 573 -15z"/>
<path d="M1014 1615 c-36 -24 -47 -68 -41 -153 l6 -78 -52 -18 c-69 -25 -127
-82 -127 -126 0 -44 58 -101 127 -126 l52 -18 -6 -81 c-4 -64 -2 -88 11 -113
37 -72 119 -69 217 9 l39 31 39 -31 c98 -78 180 -81 217 -9 13 25 15 49 11
113 l-6 81 52 18 c69 25 127 82 127 126 0 44 -58 101 -127 126 l-52 18 6 81
c4 64 2 88 -11 113 -37 72 -119 69 -217 -9 l-39 -31 -39 31 c-73 58 -145 76
-187 46z m114 -44 c20 -10 47 -30 59 -43 l22 -23 -35 -45 c-32 -41 -41 -46
-92 -52 -30 -4 -58 -5 -61 -2 -3 2 -7 34 -9 69 -7 108 31 139 116 96z m328 -6
c12 -19 15 -41 12 -90 -2 -35 -6 -67 -9 -69 -3 -3 -31 -2 -61 2 -51 6 -60 11
-92 52 l-35 45 22 23 c56 61 136 79 163 37z m-186 -120 l23 -25 -53 0 -53 0
23 25 c13 14 26 25 30 25 4 0 17 -11 30 -25z m91 -134 c22 -36 39 -67 39 -71
0 -4 -17 -35 -39 -71 l-39 -64 -79 -3 -80 -3 -25 38 c-14 21 -32 53 -42 71
-18 36 -14 50 42 135 l25 38 80 -3 79 -3 39 -64z m-272 24 c-25 -43 -34 -44
-47 -6 -11 32 -5 37 45 40 l22 1 -20 -35z m338 29 c19 -5 20 -9 11 -35 -13
-38 -22 -37 -47 6 -18 32 -19 35 -3 35 9 0 27 -3 39 -6z m-411 -69 l21 -55
-21 -55 c-23 -60 -23 -60 -104 -22 -77 36 -92 95 -34 135 23 16 98 50 112 51
3 1 15 -24 26 -54z m554 21 c97 -48 91 -108 -16 -158 -36 -17 -66 -29 -67 -27
-2 2 -12 27 -24 56 l-21 52 22 55 c24 62 25 62 106 22z m-481 -171 c18 -32 19
-35 3 -35 -9 0 -27 3 -39 6 -19 5 -20 9 -11 35 13 38 22 37 47 -6z m349 6 c9
-26 8 -30 -11 -35 -12 -3 -30 -6 -39 -6 -16 0 -15 3 3 35 25 43 34 44 47 6z
m-329 -81 c20 0 36 -12 63 -47 l37 -48 -22 -23 c-29 -31 -90 -62 -121 -62 -35
0 -56 35 -56 95 0 82 8 98 43 91 16 -3 41 -6 56 -6z m355 -12 c11 -44 6 -123
-10 -146 -9 -13 -26 -22 -40 -22 -32 0 -92 31 -121 62 l-22 23 35 45 c29 37
43 46 77 51 72 10 74 10 81 -13z m-197 -25 l-27 -28 -27 28 -28 27 55 0 55 0
-28 -27z"/>
<path d="M1203 1308 c-55 -27 -50 -114 8 -138 89 -37 151 99 63 139 -30 13
-42 13 -71 -1z"/>
</g>
</svg>
